<svg width="66" height="63" viewBox="0 0 66 63" fill="none" xmlns="http://www.w3.org/2000/svg">
<g filter="url(#filter0_d_499_77)">
<path fill-rule="evenodd" clip-rule="evenodd" d="M31.9804 1.08558C27.7474 1.29637 23.2066 2.86245 19.5489 5.37314C16.5143 7.45606 13.6363 10.4688 11.8128 13.4711C7.25342 20.9781 6.70601 29.8029 10.2833 38.1298L10.7607 39.2412L9.79396 40.3051C8.7388 41.4662 7.3492 43.3254 6.64149 44.523C5.02507 47.2581 3.94778 50.9115 4.33489 52.3451C4.84873 54.2476 7.36388 54.8212 8.63106 53.325C8.9482 52.9505 9.03076 52.701 9.47441 50.7769C10.1987 47.6358 11.9681 44.9908 14.4598 43.3242C14.9452 42.9996 20.5494 39.4935 26.9136 35.5327C47.9246 22.4569 47.3875 22.8031 49.3951 21.0392C50.9689 19.6564 52.75 17.5784 54.0001 15.6669C54.8627 14.3478 55.9626 11.9636 56.5165 10.2123C57.3469 7.58669 57.7352 5.10993 57.7352 2.4398V0.970947L45.5397 0.994331C38.8323 1.00717 32.7305 1.04828 31.9804 1.08558ZM32.3476 6.1918C25.3313 6.60999 18.7825 10.8583 15.317 17.2401C12.6754 22.1047 12.207 28.6312 14.0942 34.2827C14.4916 35.4727 15.101 36.964 15.19 36.964C15.2147 36.964 17.8225 35.3562 20.9851 33.3913C24.1475 31.4264 29.3315 28.2143 32.505 26.2534C41.2684 20.8383 42.8899 19.8181 44.2183 18.8833C48.6572 15.7597 51.4101 11.5036 52.1689 6.59183L52.2487 6.0752L43.0063 6.0913C37.9229 6.10022 33.1266 6.14546 32.3476 6.1918ZM58.522 25.2054C57.7912 25.4018 57.1941 25.9031 56.8507 26.6085C56.7458 26.8237 56.6342 27.4735 56.5702 28.24C55.7878 37.6103 49.2862 45.645 40.5829 47.9971C38.8951 48.4532 37.7671 48.6124 35.7571 48.678C31.0004 48.8334 26.6881 47.5837 22.9101 44.9551C22.0292 44.3421 21.6647 44.1443 21.5463 44.2148C20.082 45.0873 17.3478 46.8262 17.347 46.8853C17.3445 47.0579 19.0512 48.4635 20.3481 49.357C24.2749 52.0621 28.4302 53.4724 33.5204 53.8273C38.0842 54.1455 42.814 53.1493 46.7948 51.0316C48.0523 50.3626 50.2373 48.907 51.3784 47.9781C52.5208 47.0481 55.3952 43.9969 56.2589 42.7976C59.3245 38.5407 61.0944 33.8723 61.5152 28.9331C61.6618 27.2113 61.5504 26.6723 60.8967 25.9417C60.349 25.3296 59.2861 24.9999 58.522 25.2054Z" fill="#F0ECE1"/>
</g>
<defs>
<filter id="filter0_d_499_77" x="0.255859" y="0.970947" width="65.3164" height="61.2042" filterUnits="userSpaceOnUse" color-interpolation-filters="sRGB">
<feFlood flood-opacity="0" result="BackgroundImageFix"/>
<feColorMatrix in="SourceAlpha" type="matrix" values="0 0 0 0 0 0 0 0 0 0 0 0 0 0 0 0 0 0 127 0" result="hardAlpha"/>
<feOffset dy="4"/>
<feGaussianBlur stdDeviation="2"/>
<feComposite in2="hardAlpha" operator="out"/>
<feColorMatrix type="matrix" values="0 0 0 0 0 0 0 0 0 0 0 0 0 0 0 0 0 0 0.25 0"/>
<feBlend mode="normal" in2="BackgroundImageFix" result="effect1_dropShadow_499_77"/>
<feBlend mode="normal" in="SourceGraphic" in2="effect1_dropShadow_499_77" result="shape"/>
</filter>
</defs>
</svg>
