<?xml version="1.0" standalone="no"?>
<!DOCTYPE svg PUBLIC "-//W3C//DTD SVG 20010904//EN"
 "http://www.w3.org/TR/2001/REC-SVG-20010904/DTD/svg10.dtd">
<svg version="1.0" xmlns="http://www.w3.org/2000/svg"
 width="200.000000pt" height="350.000000pt" viewBox="0 0 200.000000 350.000000"
 preserveAspectRatio="xMidYMid meet">

<g transform="translate(0.000000,350.000000) scale(0.100000,-0.100000)"
fill="#000000" stroke="none">
<path d="M552 3228 c-18 -13 -41 -36 -52 -53 -11 -17 -20 -23 -20 -15 0 9 8
27 17 40 16 25 16 25 -3 8 -12 -10 -26 -18 -32 -18 -7 0 -24 -19 -39 -42 l-28
-42 -9 -1293 c-9 -1462 -15 -1344 70 -1430 38 -38 75 -59 60 -34 -10 15 46 19
78 5 l31 -13 -50 -1 c-101 -3 0 -19 380 -60 487 -54 543 -51 619 29 55 57 54
25 44 1351 -5 719 -13 1240 -18 1261 -15 54 -65 122 -109 147 -44 25 -791 182
-864 182 -28 0 -54 -8 -75 -22z m501 -92 c465 -93 464 -93 508 -183 l24 -48 7
-1220 c5 -671 6 -1239 3 -1262 -4 -25 -17 -56 -33 -74 -52 -62 -43 -62 -513
-9 -235 27 -435 53 -445 58 -28 15 -69 62 -88 100 -16 30 -17 99 -17 750 1
394 4 975 7 1290 8 634 6 614 73 659 19 13 39 23 46 23 6 0 199 -38 428 -84z
m-573 -124 c0 -5 -6 -9 -12 -9 -7 0 -24 -3 -38 -6 -20 -6 -19 -4 5 8 35 17 45
18 45 7z m-57 -333 c-5 -5 -6 11 -3 34 4 41 5 41 8 8 2 -18 0 -37 -5 -42z
m-10 -314 c-3 -9 -8 -14 -10 -11 -3 3 -2 9 2 15 9 16 15 13 8 -4z m54 -747
c-2 -13 -4 -5 -4 17 -1 22 1 32 4 23 2 -10 2 -28 0 -40z m0 -625 c-1 -109 -2
-20 -2 197 0 217 1 306 2 198 2 -109 2 -287 0 -395z m-7 -323 c0 -5 -2 -10 -4
-10 -3 0 -8 5 -11 10 -3 6 -1 10 4 10 6 0 11 -4 11 -10z m-33 -6 c-3 -3 -12
-4 -19 -1 -8 3 -5 6 6 6 11 1 17 -2 13 -5z m42 -116 c-1 -37 -2 -39 -9 -18
-12 36 -12 60 0 60 6 0 10 -19 9 -42z m47 -145 c-5 -5 -56 79 -56 92 0 5 14
-13 31 -39 16 -27 28 -50 25 -53z m527 -110 c-7 -2 -19 -2 -25 0 -7 3 -2 5 12
5 14 0 19 -2 13 -5z"/>
<path d="M906 3094 c-3 -9 -6 -23 -6 -33 0 -39 24 -51 153 -77 138 -27 157
-25 157 21 0 45 -29 62 -145 84 -132 25 -151 26 -159 5z"/>
<path d="M596 2858 c4 -13 11 -34 17 -48 l9 -25 14 30 c7 17 13 37 13 45 0 8
-6 2 -13 -14 l-13 -29 -11 32 c-12 35 -27 43 -16 9z"/>
<path d="M689 2844 c-3 -21 3 -60 10 -67 4 -4 7 8 7 27 -1 32 -14 63 -17 40z"/>
<path d="M662 2810 c0 -19 2 -27 5 -17 2 9 2 25 0 35 -3 9 -5 1 -5 -18z"/>
<path d="M730 2800 c0 -16 2 -30 4 -30 2 0 6 14 8 30 3 17 1 30 -4 30 -4 0 -8
-13 -8 -30z"/>
<path d="M772 2795 c0 -16 2 -22 5 -12 2 9 2 23 0 30 -3 6 -5 -1 -5 -18z"/>
<path d="M803 2813 c-7 -3 -13 -17 -12 -31 1 -26 1 -26 7 -4 10 33 26 31 33
-4 7 -28 7 -28 8 -3 1 29 -17 49 -36 42z"/>
<path d="M853 2794 c-7 -19 7 -46 28 -52 8 -2 5 3 -6 12 -20 15 -20 15 3 16
24 0 28 10 10 28 -16 16 -27 15 -35 -4z"/>
<path d="M941 2760 c10 -28 29 -42 29 -21 0 5 3 18 6 28 6 16 5 16 -9 -2 -16
-20 -16 -20 -17 3 0 12 -4 22 -9 22 -6 0 -6 -12 0 -30z"/>
<path d="M1060 2754 c0 -16 4 -35 9 -42 5 -8 7 0 7 22 -2 43 -16 61 -16 20z"/>
<path d="M992 2745 c0 -16 2 -22 5 -12 2 9 2 23 0 30 -3 6 -5 -1 -5 -18z"/>
<path d="M1020 2745 c0 -14 2 -25 4 -25 2 0 6 11 8 25 3 14 1 25 -3 25 -5 0
-9 -11 -9 -25z"/>
<path d="M1101 2733 c-1 -27 3 -33 19 -33 15 0 20 6 19 28 -2 23 -2 24 -6 5
-6 -32 -21 -29 -26 5 -4 25 -4 25 -6 -5z"/>
<path d="M1223 2720 c0 -25 2 -35 4 -22 2 12 2 32 0 45 -2 12 -4 2 -4 -23z"/>
<path d="M1156 2734 c-8 -22 11 -54 29 -48 20 8 19 50 -1 58 -21 8 -21 8 -28
-10z m34 -20 c0 -16 -16 -19 -25 -4 -8 13 4 32 16 25 5 -4 9 -13 9 -21z"/>
<path d="M599 2723 c-12 -16 -12 -17 2 -6 9 7 20 9 24 5 5 -4 5 -1 1 6 -9 16
-11 15 -27 -5z"/>
<path d="M700 2689 c0 -5 5 -7 10 -4 6 3 10 8 10 11 0 2 -4 4 -10 4 -5 0 -10
-5 -10 -11z"/>
<path d="M747 2691 c6 -7 9 -20 6 -27 -3 -8 -3 -14 0 -14 14 0 14 30 -1 41
-14 11 -15 11 -5 0z"/>
<path d="M892 2650 c0 -14 2 -19 5 -12 2 6 2 18 0 25 -3 6 -5 1 -5 -13z"/>
<path d="M597 2503 c-10 -9 -8 -55 2 -71 9 -16 233 -57 256 -48 21 8 19 60 -2
78 -10 8 -61 22 -114 31 -104 19 -132 20 -142 10z m92 -24 c20 -11 27 -14 17
-5 -16 13 -16 16 -5 16 9 0 18 -3 22 -6 3 -3 26 -8 52 -10 64 -5 87 -19 83
-52 -2 -21 -8 -27 -28 -27 -21 0 -25 4 -22 27 3 23 -2 30 -24 38 -15 6 -29 8
-32 6 -2 -3 7 -8 22 -12 16 -4 26 -13 26 -24 0 -19 -36 -34 -46 -18 -3 5 -17
7 -29 4 -13 -3 -27 -2 -30 4 -3 6 -17 7 -30 4 -36 -9 -65 12 -65 46 0 26 4 30
26 30 15 0 43 -9 63 -21z"/>
<path d="M652 2460 c0 -14 2 -19 5 -12 2 6 2 18 0 25 -3 6 -5 1 -5 -13z"/>
<path d="M582 2258 c-19 -19 -15 -41 6 -33 9 4 42 9 72 13 l55 5 -55 13 c-69
16 -64 16 -78 2z"/>
<path d="M1126 2140 c12 -36 12 -43 0 -56 -22 -22 -26 -18 -27 34 -1 36 -2 41
-8 22 -4 -14 -5 -47 -3 -73 3 -38 7 -45 17 -37 10 8 15 8 20 -1 7 -10 -5 -23
-28 -32 -4 -1 -9 -78 -10 -170 l-2 -167 35 -6 c19 -3 53 -9 75 -13 52 -9 80
-4 66 13 -11 13 -4 56 10 56 5 0 8 -16 7 -35 -2 -42 1 -46 44 -50 18 -2 44 -6
58 -9 14 -2 45 -7 70 -10 25 -4 53 -9 63 -12 16 -5 17 10 17 212 0 191 -2 215
-15 204 -9 -7 -15 -8 -15 -2 0 5 7 12 15 16 8 3 15 14 15 25 0 10 -7 21 -15
25 -8 3 -15 11 -15 18 0 9 3 9 11 -2 9 -13 10 -13 6 0 -2 8 -8 15 -13 16 -5 0
-17 4 -28 9 -12 5 -21 3 -26 -6 -7 -11 -10 -10 -16 4 -3 9 -14 17 -23 17 -13
0 -13 -2 -2 -9 11 -7 9 -13 -8 -30 -22 -22 -29 -61 -11 -61 6 0 10 7 10 15 0
8 5 15 10 15 6 0 10 -12 10 -26 0 -38 24 -24 31 17 7 48 19 66 30 48 5 -8 9
-26 9 -42 0 -21 -7 -31 -35 -44 -21 -10 -35 -24 -35 -35 0 -10 -4 -18 -10 -18
-5 0 -10 15 -10 33 l-1 32 -14 -25 c-11 -19 -14 -21 -15 -7 0 9 -4 17 -10 17
-5 0 -7 -7 -4 -15 4 -8 1 -15 -5 -15 -16 0 -14 71 3 89 8 9 18 28 21 44 6 21
4 27 -10 27 -9 0 -14 -4 -11 -8 3 -5 -6 -25 -19 -45 -14 -20 -25 -42 -25 -50
0 -8 -8 -18 -17 -21 -15 -6 -15 -8 -3 -17 13 -9 13 -10 0 -6 -18 5 -15 47 4
62 15 11 28 95 16 95 -5 0 -12 -14 -15 -32 l-7 -32 -19 23 c-11 13 -19 19 -19
14 0 -5 5 -14 11 -20 7 -7 8 -20 4 -30 -5 -14 -12 -7 -31 35 -26 56 -28 57
-85 66 l-37 6 14 -40z m67 -55 c3 -18 -1 -29 -14 -36 -17 -8 -19 -6 -19 19 0
47 24 59 33 17z m50 -48 c9 -23 -4 -66 -18 -61 -9 4 -13 -6 -12 -35 1 -23 -1
-41 -5 -41 -3 0 -13 -3 -22 -6 -11 -4 -16 -1 -16 11 0 9 -4 13 -10 10 -15 -9
-12 27 4 48 7 9 18 17 25 17 6 0 11 4 11 9 0 19 20 61 29 61 5 0 11 -6 14 -13z
m-63 -28 c0 -5 -4 -9 -10 -9 -5 0 -10 7 -10 16 0 8 5 12 10 9 6 -3 10 -10 10
-16z m281 -32 c-10 -9 -11 -8 -5 6 3 10 9 15 12 12 3 -3 0 -11 -7 -18z m-176
-17 c3 -5 1 -10 -4 -10 -6 0 -11 5 -11 10 0 6 2 10 4 10 3 0 8 -4 11 -10z
m130 -20 c-3 -5 -10 -10 -16 -10 -5 0 -9 5 -9 10 0 6 7 10 16 10 8 0 12 -4 9
-10z m-111 -32 c9 -35 7 -58 -4 -58 -6 0 -10 6 -9 13 3 28 -2 39 -16 33 -18
-7 -20 5 -3 22 17 17 25 15 32 -10z m74 -57 c3 -55 1 -72 -8 -66 -7 4 -10 18
-7 31 2 14 0 27 -5 30 -4 3 -8 2 -7 -3 1 -4 0 -24 -1 -43 l-2 -35 -8 35 c-5
19 -6 38 -4 42 2 3 0 9 -6 13 -15 9 -12 25 4 19 9 -3 13 2 12 18 -3 29 3 40
17 35 6 -2 12 -36 15 -76z m-255 32 c-3 -18 -9 -33 -14 -33 -5 0 -6 12 -3 28
13 53 25 57 17 5z m32 -62 c-3 -12 -11 -21 -16 -21 -5 0 -9 -12 -10 -27 0 -16
-4 -37 -9 -48 -7 -17 -9 -15 -9 12 -1 35 12 77 31 97 17 18 22 13 13 -13z
m321 0 c-3 -5 -15 -11 -26 -14 -17 -4 -19 -3 -9 9 12 15 44 20 35 5z m-246
-11 c0 -5 -9 -19 -20 -30 -22 -22 -27 -11 -8 20 14 21 28 26 28 10z m-3 -62
c-3 -8 -6 -5 -6 6 -1 11 2 17 5 13 3 -3 4 -12 1 -19z m193 -30 c0 -12 -3 -18
-7 -14 -11 10 -12 36 -2 36 5 0 9 -10 9 -22z m70 13 c0 -6 -4 -13 -10 -16 -5
-3 -10 1 -10 9 0 9 5 16 10 16 6 0 10 -4 10 -9z m-130 -43 c0 -9 -3 -10 -23
-2 -9 3 -13 13 -9 26 5 20 6 20 19 3 7 -11 13 -22 13 -27z m-10 -22 c0 -3 -4
-8 -10 -11 -5 -3 -10 -1 -10 4 0 6 5 11 10 11 6 0 10 -2 10 -4z"/>
<path d="M1250 2150 c0 -5 5 -10 10 -10 6 0 10 5 10 10 0 6 -4 10 -10 10 -5 0
-10 -4 -10 -10z"/>
<path d="M741 2057 c-15 -37 -15 -36 19 -35 16 1 31 7 34 14 3 8 0 11 -10 7
-10 -4 -12 0 -7 13 4 11 3 15 -4 11 -6 -4 -13 -1 -16 5 -3 8 -10 1 -16 -15z"/>
<path d="M1360 2035 c0 -8 4 -15 10 -15 5 0 7 7 4 15 -4 8 -8 15 -10 15 -2 0
-4 -7 -4 -15z"/>
<path d="M951 1903 c-9 -19 -7 -27 10 -44 11 -11 27 -18 35 -15 19 7 18 26 -2
26 -14 0 -15 2 -3 17 12 14 12 15 0 9 -10 -6 -12 -4 -7 11 9 29 -20 25 -33 -4z"/>
<path d="M590 1900 c71 -54 305 -140 382 -140 40 0 6 17 -45 24 -101 11 -278
77 -328 122 -8 8 -20 14 -25 14 -5 0 2 -9 16 -20z"/>
<path d="M570 1796 c0 -64 -6 -61 130 -76 82 -10 170 -23 308 -46 l32 -5 -1
63 c-1 35 -4 50 -6 33 -3 -16 -8 -34 -13 -38 -13 -14 -64 -16 -79 -3 -12 9
-14 8 -9 -5 5 -14 -4 -14 -97 -3 -126 15 -160 29 -219 88 l-46 47 0 -55z"/>
<path d="M756 1685 c-3 -9 0 -15 9 -15 9 0 12 6 9 15 -4 8 -7 15 -9 15 -2 0
-5 -7 -9 -15z"/>
<path d="M820 1669 c0 -4 7 -9 15 -13 9 -3 15 0 15 8 0 7 -7 13 -15 13 -8 0
-15 -4 -15 -8z"/>
<path d="M655 1640 c-14 -44 7 -55 132 -74 65 -9 125 -19 134 -22 16 -4 49 19
49 35 0 30 -31 43 -150 61 -155 24 -157 24 -165 0z m107 -24 c7 4 8 2 4 -4
-12 -19 -36 -15 -29 5 4 11 8 13 11 5 2 -7 9 -9 14 -6z m78 -26 c0 -5 -9 -6
-20 -3 -11 3 -20 9 -20 13 0 5 9 6 20 3 11 -3 20 -9 20 -13z m35 0 c-3 -5 -12
-10 -18 -10 -7 0 -6 4 3 10 19 12 23 12 15 0z"/>
<path d="M1190 1616 c0 -7 9 -16 20 -19 20 -5 24 12 5 25 -15 12 -25 9 -25 -6z"/>
<path d="M1247 1602 c3 -7 13 -12 22 -10 9 1 22 -1 29 -5 7 -5 12 -3 12 6 0 9
-13 16 -34 19 -25 3 -32 0 -29 -10z"/>
<path d="M1340 1600 c13 -9 13 -10 0 -11 -10 0 -8 -3 5 -8 32 -13 52 0 24 15
-28 15 -51 18 -29 4z"/>
<path d="M1400 1580 c0 -5 5 -10 10 -10 6 0 10 5 10 10 0 6 -4 10 -10 10 -5 0
-10 -4 -10 -10z"/>
<path d="M1167 1573 c-16 -15 -6 -54 16 -63 32 -13 255 -42 267 -35 14 9 12
51 -2 62 -12 10 -211 43 -254 43 -11 0 -24 -3 -27 -7z m87 -38 c3 -8 1 -15 -4
-15 -6 0 -10 7 -10 15 0 8 2 15 4 15 2 0 6 -7 10 -15z m66 -15 c0 -5 -9 -6
-20 -3 -11 3 -17 9 -15 14 7 10 35 1 35 -11z m48 -8 c4 -14 0 -15 -22 -6 -9 3
-16 10 -16 14 0 12 33 5 38 -8z"/>
<path d="M660 1455 c0 -8 9 -15 20 -15 11 0 20 2 20 5 0 2 -9 9 -20 15 -16 9
-20 8 -20 -5z"/>
<path d="M570 1421 c0 -11 5 -23 10 -26 6 -3 10 3 10 14 0 11 -4 23 -10 26 -5
3 -10 -3 -10 -14z"/>
<path d="M612 1428 c-17 -17 -15 -33 3 -18 8 6 19 8 26 4 7 -4 10 -2 7 6 -6
19 -22 22 -36 8z"/>
<path d="M898 1423 c14 -3 22 -12 22 -26 1 -22 1 -22 16 -2 13 18 13 20 -3 27
-10 3 -27 6 -38 6 -17 -1 -16 -1 3 -5z"/>
<path d="M790 1395 c0 -16 6 -25 15 -25 8 0 15 5 15 11 0 5 -4 8 -9 5 -5 -4
-7 3 -4 14 3 11 0 20 -6 20 -6 0 -11 -11 -11 -25z"/>
<path d="M852 1408 c-14 -14 -16 -28 -3 -28 9 0 24 30 18 36 -2 2 -9 -2 -15
-8z"/>
<path d="M970 1411 c0 -18 18 -21 30 -6 10 13 9 15 -9 15 -11 0 -21 -4 -21 -9z"/>
<path d="M643 1364 c-12 -25 -11 -26 6 -10 10 9 24 16 32 16 12 0 11 2 -1 10
-21 14 -24 13 -37 -16z"/>
<path d="M761 1375 c-1 -12 4 -26 11 -33 9 -9 9 -12 0 -12 -9 0 -9 -4 -1 -19
14 -22 5 -55 -14 -48 -6 2 -18 -3 -24 -12 -11 -14 -14 -14 -24 -1 -8 11 -12
12 -16 3 -3 -9 -10 -10 -23 -3 -26 14 -47 -13 -32 -43 l11 -22 0 21 c1 26 29
40 38 19 4 -12 9 -13 19 -4 8 6 14 8 14 3 0 -5 5 -1 11 9 12 21 23 22 44 1 19
-20 33 -11 16 10 -7 9 -9 21 -5 28 11 18 13 78 2 78 -5 0 -13 10 -18 23 -8 21
-9 21 -9 2z"/>
<path d="M890 1372 c0 -4 12 -21 28 -38 26 -28 72 -43 72 -23 0 6 -5 7 -10 4
-6 -3 -13 0 -16 9 -3 8 -11 13 -18 10 -7 -3 -18 7 -26 21 -13 24 -30 34 -30
17z"/>
<path d="M600 1359 c0 -5 5 -7 10 -4 6 3 10 8 10 11 0 2 -4 4 -10 4 -5 0 -10
-5 -10 -11z"/>
<path d="M843 1351 c-11 -17 -10 -18 12 -7 13 6 21 14 19 18 -8 13 -18 9 -31
-11z"/>
<path d="M1003 1354 c-7 -19 7 -46 28 -52 10 -4 9 0 -3 15 -10 11 -18 25 -18
31 0 6 8 13 18 15 16 4 16 5 -1 6 -10 0 -20 -6 -24 -15z"/>
<path d="M706 1325 c4 -9 11 -14 16 -13 15 5 11 23 -6 26 -11 2 -14 -2 -10
-13z"/>
<path d="M618 1322 c-10 -4 -27 -24 -38 -45 l-20 -37 20 12 c11 7 20 20 20 30
0 23 18 32 35 18 15 -12 31 3 20 20 -7 11 -13 12 -37 2z"/>
<path d="M680 1303 c0 -5 4 -14 8 -21 9 -14 42 -6 42 10 0 6 -7 8 -15 4 -8 -3
-15 -1 -15 4 0 6 -4 10 -10 10 -5 0 -10 -3 -10 -7z"/>
<path d="M877 1278 c-4 -12 -4 -24 -1 -27 6 -7 24 20 24 37 0 21 -17 13 -23
-10z"/>
<path d="M825 1280 c3 -5 8 -10 11 -10 2 0 4 5 4 10 0 6 -5 10 -11 10 -5 0 -7
-4 -4 -10z"/>
<path d="M1522 1260 c0 -14 2 -19 5 -12 2 6 2 18 0 25 -3 6 -5 1 -5 -13z"/>
<path d="M930 1260 c0 -5 5 -10 11 -10 5 0 7 5 4 10 -3 6 -8 10 -11 10 -2 0
-4 -4 -4 -10z"/>
<path d="M975 1249 c-4 -6 -5 -12 -2 -15 2 -3 7 2 10 11 7 17 1 20 -8 4z"/>
<path d="M1025 1240 c-3 -5 -1 -10 4 -10 6 0 11 5 11 10 0 6 -2 10 -4 10 -3 0
-8 -4 -11 -10z"/>
<path d="M815 1220 c3 -5 10 -10 16 -10 5 0 9 5 9 10 0 6 -7 10 -16 10 -8 0
-12 -4 -9 -10z"/>
<path d="M905 1210 c4 -11 2 -20 -4 -20 -6 0 -11 -5 -11 -10 0 -6 11 -3 24 7
17 13 21 21 14 31 -16 19 -30 14 -23 -8z"/>
<path d="M570 1206 c0 -9 5 -16 10 -16 6 0 10 4 10 9 0 6 -4 13 -10 16 -5 3
-10 -1 -10 -9z"/>
<path d="M975 1200 c-3 -5 1 -10 10 -10 9 0 13 5 10 10 -3 6 -8 10 -10 10 -2
0 -7 -4 -10 -10z"/>
<path d="M1022 1190 c7 -10 14 -18 15 -16 6 6 -9 36 -18 36 -5 0 -4 -9 3 -20z"/>
<path d="M597 1187 c-3 -7 3 -13 13 -13 10 0 16 6 13 13 -3 7 -9 13 -13 13 -4
0 -10 -6 -13 -13z"/>
<path d="M675 1169 c-4 -6 -13 -8 -21 -5 -9 4 -13 -2 -11 -17 1 -15 -4 -23
-18 -25 -19 -3 -52 -52 -35 -52 4 0 11 7 14 16 4 9 13 14 21 10 8 -3 15 -1 15
4 0 6 9 10 20 10 13 0 18 5 14 15 -8 21 14 45 34 38 15 -4 15 -3 2 6 -19 14
-27 14 -35 0z"/>
<path d="M780 1170 c0 -5 5 -10 10 -10 6 0 10 5 10 10 0 6 -4 10 -10 10 -5 0
-10 -4 -10 -10z"/>
<path d="M976 1154 c-9 -24 -7 -28 9 -14 17 14 20 30 6 30 -5 0 -12 -7 -15
-16z"/>
<path d="M560 1150 c0 -5 7 -10 15 -10 8 0 15 5 15 10 0 6 -7 10 -15 10 -8 0
-15 -4 -15 -10z"/>
<path d="M720 1135 c0 -8 5 -15 10 -15 6 0 10 7 10 15 0 8 -4 15 -10 15 -5 0
-10 -7 -10 -15z"/>
<path d="M764 1135 c-10 -8 -14 -14 -9 -15 15 0 40 18 34 24 -3 3 -14 -1 -25
-9z"/>
<path d="M895 1120 c-4 -6 2 -9 14 -7 29 4 39 17 13 17 -11 0 -24 -5 -27 -10z"/>
<path d="M850 1079 c0 -20 16 -24 37 -11 8 5 3 11 -13 19 -21 10 -24 9 -24 -8z"/>
<path d="M953 1093 c-17 -6 -16 -20 1 -26 8 -3 17 1 20 8 6 17 -3 24 -21 18z"/>
<path d="M810 1075 c-11 -13 -10 -14 4 -9 9 3 16 10 16 15 0 13 -6 11 -20 -6z"/>
<path d="M722 1059 c-18 -29 -8 -35 17 -10 24 24 26 31 8 31 -7 0 -18 -9 -25
-21z"/>
<path d="M1010 1064 c0 -8 5 -12 10 -9 6 4 8 11 5 16 -9 14 -15 11 -15 -7z"/>
<path d="M905 1030 c-4 -25 -12 -40 -21 -40 -23 0 -16 -17 10 -22 21 -4 23 -1
22 26 -1 27 2 31 22 28 29 -4 28 8 -2 30 l-24 18 -7 -40z"/>
<path d="M580 1050 c-12 -7 -12 -12 -2 -22 10 -10 15 -10 22 2 19 29 9 39 -20
20z"/>
<path d="M635 1050 c-3 -5 -1 -10 4 -10 6 0 11 5 11 10 0 6 -2 10 -4 10 -3 0
-8 -4 -11 -10z"/>
<path d="M670 1050 c0 -5 5 -10 10 -10 6 0 10 5 10 10 0 6 -4 10 -10 10 -5 0
-10 -4 -10 -10z"/>
<path d="M780 1040 c-8 -5 -11 -12 -7 -16 4 -4 13 -2 19 4 15 15 7 24 -12 12z"/>
<path d="M970 1021 c-14 -14 -11 -16 28 -16 30 0 42 4 42 14 0 8 -3 12 -6 8
-3 -3 -16 -2 -28 2 -14 5 -26 3 -36 -8z"/>
<path d="M636 1011 c-5 -8 -3 -17 5 -22 18 -11 21 -11 39 1 12 8 11 10 -7 10
-12 0 -23 5 -25 12 -3 9 -6 9 -12 -1z"/>
<path d="M583 995 c-7 -8 -13 -22 -13 -32 0 -15 4 -14 24 7 13 14 21 28 19 33
-6 11 -16 8 -30 -8z"/>
<path d="M710 995 c-14 -16 -10 -18 14 -9 9 3 16 10 16 15 0 14 -16 11 -30 -6z"/>
<path d="M760 1003 c0 -5 8 -17 17 -28 14 -18 15 -18 9 -2 -3 10 -6 23 -6 28
0 5 -4 9 -10 9 -5 0 -10 -3 -10 -7z"/>
<path d="M819 963 c-10 -12 -10 -14 -1 -9 6 4 12 2 12 -4 0 -6 -7 -13 -15 -16
-8 -4 -15 -10 -15 -15 0 -17 37 10 43 31 7 26 -7 34 -24 13z"/>
<path d="M1017 973 c-12 -12 -7 -22 8 -17 8 4 15 10 15 15 0 11 -14 12 -23 2z"/>
<path d="M890 951 c0 -5 5 -13 10 -16 6 -3 10 -2 10 4 0 5 -4 13 -10 16 -5 3
-10 2 -10 -4z"/>
<path d="M649 938 c-11 -8 -11 -9 3 -5 9 3 18 1 20 -5 2 -6 12 -9 23 -7 16 4
16 5 -7 16 -17 7 -29 8 -39 1z"/>
<path d="M936 931 c-15 -6 -16 -10 -7 -16 11 -6 11 -9 0 -16 -11 -7 -11 -9 2
-9 9 0 20 10 26 22 l10 23 12 -23 c15 -27 31 -29 31 -2 0 12 -5 17 -14 14 -8
-3 -17 -1 -21 5 -7 12 -12 13 -39 2z"/>
<path d="M720 920 c0 -5 5 -10 10 -10 6 0 10 5 10 10 0 6 -4 10 -10 10 -5 0
-10 -4 -10 -10z"/>
<path d="M861 921 c-7 -5 -9 -11 -5 -14 5 -3 15 1 22 9 14 16 5 18 -17 5z"/>
<path d="M771 881 c-1 -20 1 -21 14 -11 16 14 21 25 6 16 -5 -4 -12 0 -14 6
-3 7 -6 2 -6 -11z"/>
<path d="M820 865 c7 -8 16 -12 21 -9 13 8 1 24 -18 24 -13 0 -13 -3 -3 -15z"/>
<path d="M663 853 c-18 -7 -16 -48 2 -63 18 -15 255 -46 279 -37 19 8 21 50 4
64 -7 6 -60 15 -118 22 -58 7 -116 14 -130 16 -14 2 -31 1 -37 -2z m100 -50
c-3 -6 -11 -9 -19 -6 -20 7 -17 19 5 19 11 0 17 -6 14 -13z m77 -13 c0 -5 -9
-6 -20 -3 -11 3 -20 9 -20 13 0 5 9 6 20 3 11 -3 20 -9 20 -13z m35 0 c-3 -5
-11 -10 -16 -10 -6 0 -7 5 -4 10 3 6 11 10 16 10 6 0 7 -4 4 -10z"/>
<path d="M1262 818 c6 -18 25 -20 31 -3 5 10 0 15 -14 15 -12 0 -19 -5 -17
-12z"/>
<path d="M1310 817 c0 -8 7 -14 15 -14 11 0 12 4 4 14 -6 7 -13 13 -15 13 -2
0 -4 -6 -4 -13z"/>
<path d="M1167 783 c-11 -11 -8 -51 5 -59 7 -4 71 -16 143 -25 120 -16 131
-16 143 -1 15 20 15 24 -1 46 -18 24 -271 59 -290 39z m178 -53 c3 -5 1 -10
-4 -10 -6 0 -11 5 -11 10 0 6 2 10 4 10 3 0 8 -4 11 -10z"/>
<path d="M617 518 c-19 -10 -23 -53 -7 -63 6 -3 14 4 20 17 l9 23 7 -22 c9
-32 24 -29 24 5 0 33 -28 54 -53 40z"/>
<path d="M810 490 c0 -11 7 -20 15 -20 8 0 15 9 15 20 0 11 -7 20 -15 20 -8 0
-15 -9 -15 -20z"/>
<path d="M850 496 c0 -9 7 -16 16 -16 17 0 14 22 -4 28 -7 2 -12 -3 -12 -12z"/>
<path d="M1023 464 c-10 -27 2 -49 30 -52 27 -3 28 -1 25 30 -2 27 -8 33 -26
34 -13 1 -26 -5 -29 -12z m42 -14 c-3 -5 -13 -6 -21 -3 -12 4 -13 8 -3 14 15
9 32 2 24 -11z"/>
<path d="M852 449 c1 -13 8 -23 13 -21 15 3 12 35 -3 40 -9 3 -13 -3 -10 -19z"/>
<path d="M1222 423 c3 -35 6 -38 36 -41 33 -3 33 -3 30 35 -3 35 -6 38 -36 41
-33 3 -33 3 -30 -35z m40 -1 c3 -11 0 -19 -8 -19 -15 0 -19 19 -7 30 9 10 10
9 15 -11z"/>
<path d="M810 440 c0 -5 7 -10 15 -10 8 0 15 5 15 10 0 6 -7 10 -15 10 -8 0
-15 -4 -15 -10z"/>
<path d="M1445 430 c-4 -6 -3 -16 3 -22 6 -6 12 -6 17 2 4 6 3 16 -3 22 -6 6
-12 6 -17 -2z"/>
<path d="M1425 381 c-6 -11 5 -18 40 -23 12 -2 20 3 20 12 0 18 -50 26 -60 11z"/>
</g>
</svg>
