<?xml version="1.0" standalone="no"?>
<svg viewBox="0 0 200 200" xmlns="http://www.w3.org/2000/svg">
  <path fill="#6B8E4E" d="M34.5,-53.8C43.4,-47.9,48.5,-36.2,56.4,-24.2C64.4,-12.2,75.2,0.1,72.8,9.8C70.3,19.5,54.6,26.6,41.9,30.3C29.3,34.1,19.8,34.5,8.8,44.3C-2.3,54.2,-14.8,73.5,-29,78.5C-43.1,83.5,-59,74.2,-66.4,60.5C-73.8,46.7,-72.8,28.5,-74.2,11.4C-75.6,-5.8,-79.4,-21.9,-74.6,-34.7C-69.7,-47.4,-56.1,-56.8,-42.2,-60.5C-28.4,-64.2,-14.2,-62.2,-0.7,-61.1C12.8,-60,25.5,-59.8,34.5,-53.8Z" transform="translate(100 100)" />
</svg>
