<svg width="33" height="29" viewBox="0 0 33 29" fill="none" xmlns="http://www.w3.org/2000/svg">
<path d="M3.66667 29C2.65834 29 1.79545 28.6453 1.078 27.9361C0.360559 27.2268 0.00122533 26.3731 3.10734e-06 25.375C-0.00121911 24.3769 0.358114 23.5238 1.078 22.8157C1.79789 22.1077 2.66078 21.7524 3.66667 21.75H29.3333C30.3417 21.75 31.2052 22.1052 31.9238 22.8157C32.6425 23.5262 33.0012 24.3793 33 25.375C32.9988 26.3707 32.6401 27.2243 31.9238 27.9361C31.2076 28.6478 30.3441 29.0024 29.3333 29H3.66667ZM3.66667 7.25C2.65834 7.25 1.79545 6.89535 1.078 6.18606C0.360559 5.47677 0.00122533 4.62308 3.10734e-06 3.625C-0.00121911 2.62692 0.358114 1.77383 1.078 1.06575C1.79789 0.357666 2.66078 0.00241667 3.66667 0H29.3333C30.3417 0 31.2052 0.35525 31.9238 1.06575C32.6425 1.77625 33.0012 2.62933 33 3.625C32.9988 4.62066 32.6401 5.47435 31.9238 6.18606C31.2076 6.89777 30.3441 7.25241 29.3333 7.25H3.66667ZM3.66667 18.125C2.65834 18.125 1.79545 17.7703 1.078 17.0611C0.360559 16.3518 0.00122533 15.4981 3.10734e-06 14.5C-0.00121911 13.5019 0.358114 12.6488 1.078 11.9407C1.79789 11.2327 2.66078 10.8774 3.66667 10.875H29.3333C30.3417 10.875 31.2052 11.2302 31.9238 11.9407C32.6425 12.6512 33.0012 13.5043 33 14.5C32.9988 15.4957 32.6401 16.3493 31.9238 17.0611C31.2076 17.7728 30.3441 18.1274 29.3333 18.125H3.66667ZM5.5 5.4375C6.01945 5.4375 6.45517 5.2635 6.80717 4.9155C7.15917 4.5675 7.33456 4.13733 7.33333 3.625C7.33211 3.11267 7.15611 2.6825 6.80533 2.3345C6.45456 1.9865 6.01945 1.8125 5.5 1.8125C4.98056 1.8125 4.54545 1.9865 4.19467 2.3345C3.84389 2.6825 3.66789 3.11267 3.66667 3.625C3.66545 4.13733 3.84145 4.5681 4.19467 4.91731C4.54789 5.26652 4.983 5.43991 5.5 5.4375ZM5.5 16.3125C6.01945 16.3125 6.45517 16.1385 6.80717 15.7905C7.15917 15.4425 7.33456 15.0123 7.33333 14.5C7.33211 13.9877 7.15611 13.5575 6.80533 13.2095C6.45456 12.8615 6.01945 12.6875 5.5 12.6875C4.98056 12.6875 4.54545 12.8615 4.19467 13.2095C3.84389 13.5575 3.66789 13.9877 3.66667 14.5C3.66545 15.0123 3.84145 15.4431 4.19467 15.7923C4.54789 16.1415 4.983 16.3149 5.5 16.3125ZM5.5 27.1875C6.01945 27.1875 6.45517 27.0135 6.80717 26.6655C7.15917 26.3175 7.33456 25.8873 7.33333 25.375C7.33211 24.8627 7.15611 24.4325 6.80533 24.0845C6.45456 23.7365 6.01945 23.5625 5.5 23.5625C4.98056 23.5625 4.54545 23.7365 4.19467 24.0845C3.84389 24.4325 3.66789 24.8627 3.66667 25.375C3.66545 25.8873 3.84145 26.3181 4.19467 26.6673C4.54789 27.0165 4.983 27.1899 5.5 27.1875Z" fill="#F0ECE1"/>
</svg>
