<svg width="46" height="46" viewBox="0 0 46 46" fill="none" xmlns="http://www.w3.org/2000/svg">
<path d="M22.917 0.5C26.0184 0.497008 28.9296 1.08611 31.6553 2.26465C34.3912 3.44766 36.7635 5.04537 38.7764 7.05664C40.7891 9.06791 42.3883 11.4403 43.5713 14.1777C44.7499 16.905 45.3375 19.8162 45.333 22.916C45.3285 26.0168 44.7399 28.9292 43.5684 31.6572C42.3931 34.3938 40.7957 36.7654 38.7773 38.7764C36.758 40.7882 34.3854 42.3867 31.6553 43.5713C28.9362 44.7511 26.0254 45.3389 22.918 45.333H22.917C19.8119 45.333 16.8997 44.7445 14.1768 43.5703C11.4445 42.392 9.07247 40.7937 7.05664 38.7764C5.0407 36.7589 3.44296 34.3872 2.26465 31.6562C1.09046 28.9349 0.501497 26.0228 0.5 22.916C0.498557 19.8098 1.08766 16.8987 2.26465 14.1777C3.44608 11.4465 5.0436 9.07426 7.05664 7.05664C9.06926 5.03954 11.4415 3.44241 14.1768 2.26562C16.9031 1.09273 19.8148 0.503013 22.917 0.5ZM22.917 4.08301C17.6691 4.08301 13.2054 5.90981 9.55762 9.55762C5.9098 13.2054 4.08301 17.6691 4.08301 22.917C4.08308 28.1646 5.90999 32.6277 9.55762 36.2754C13.2054 39.9232 17.6691 41.75 22.917 41.75C28.1647 41.7499 32.6277 39.9231 36.2754 36.2754C39.9231 32.6277 41.7499 28.1647 41.75 22.917C41.75 17.6691 39.9232 13.2054 36.2754 9.55762C32.6277 5.90999 28.1646 4.08308 22.917 4.08301ZM22.8037 31.4375C23.4791 31.4349 24.0282 31.6611 24.4824 32.1191C24.9389 32.5795 25.1656 33.1307 25.167 33.8027C25.1683 34.4734 24.9418 35.023 24.4834 35.4814C24.025 35.9398 23.4745 36.167 22.8018 36.167C22.1358 36.1669 21.5853 35.9406 21.1211 35.4814C20.6599 35.0253 20.4337 34.477 20.4375 33.8047C20.4414 33.1279 20.6691 32.5773 21.123 32.1221C21.5762 31.6677 22.1259 31.4401 22.8037 31.4375ZM23.1455 9.66699C25.1897 9.66699 26.9367 10.2123 28.4082 11.2891C29.8308 12.3301 30.5518 13.8143 30.5518 15.8125C30.5518 16.9935 30.2844 17.975 29.7715 18.7793C29.2251 19.636 28.4709 20.5505 27.501 21.5215C26.1658 22.7818 25.2774 23.8416 24.9453 24.6807C24.6674 25.3828 24.5212 26.2771 24.4873 27.3438H21.2461C21.2761 25.6047 21.4634 24.4776 21.7598 23.8848C21.9199 23.5647 22.2365 23.1325 22.7412 22.5811C23.241 22.035 23.9056 21.3933 24.7383 20.6553L24.7373 20.6543C25.4512 20.0592 26.053 19.4099 26.5371 18.7031C27.0487 17.9562 27.3125 17.1416 27.3125 16.2705C27.3124 15.3287 26.9479 14.4776 26.2646 13.7295C25.5291 12.924 24.4571 12.5625 23.1455 12.5625C21.6739 12.5626 20.4903 12.9961 19.6982 13.9453C19.1568 14.5943 18.7488 15.2279 18.4922 15.8447L15.6475 14.7236C16.172 13.3998 17.0096 12.2487 18.1699 11.2676C19.4156 10.2143 21.059 9.66705 23.1455 9.66699Z" fill="#F0ECE1" stroke="#A7986D"/>
</svg>
