<svg width="33" height="33" viewBox="0 0 33 33" fill="none" xmlns="http://www.w3.org/2000/svg">
<path d="M1.96269 2.73198C1.64266 3.32625 1.4853 4.06248 1.17058 5.53164L0.113254 10.4674C-0.0365939 11.1403 -0.0377545 11.8348 0.109844 12.5082C0.257442 13.1816 0.550693 13.8198 0.971645 14.3837C1.3926 14.9476 1.93239 15.4254 2.55799 15.7877C3.18358 16.1501 3.88181 16.3895 4.60993 16.4912C5.33805 16.5929 6.08073 16.5547 6.79253 16.3792C7.50432 16.2036 8.17024 15.8942 8.74952 15.47C9.3288 15.0458 9.80925 14.5156 10.1615 13.912C10.5137 13.3084 10.7302 12.6441 10.7979 11.9596L10.9216 10.8206C10.8546 11.545 10.9502 12.2745 11.2023 12.9625C11.4544 13.6505 11.8574 14.2818 12.3856 14.8161C12.9138 15.3504 13.5555 15.776 14.2699 16.0656C14.9842 16.3553 15.7554 16.5026 16.5342 16.4982C17.313 16.4938 18.0822 16.3378 18.7928 16.0402C19.5033 15.7425 20.1395 15.3098 20.6608 14.7695C21.1821 14.2293 21.5769 13.5935 21.8201 12.9028C22.0632 12.212 22.1494 11.4815 22.073 10.7579L22.2021 11.9596C22.2698 12.6441 22.4863 13.3084 22.8385 13.912C23.1907 14.5156 23.6712 15.0458 24.2505 15.47C24.8298 15.8942 25.4957 16.2036 26.2075 16.3792C26.9193 16.5547 27.662 16.5929 28.3901 16.4912C29.1182 16.3895 29.8164 16.1501 30.442 15.7877C31.0676 15.4254 31.6074 14.9476 32.0284 14.3837C32.4493 13.8198 32.7426 13.1816 32.8902 12.5082C33.0378 11.8348 33.0366 11.1403 32.8867 10.4674L31.8294 5.53164C31.5147 4.06248 31.3573 3.3279 31.0373 2.73198C30.7039 2.11136 30.2343 1.56315 29.6593 1.12292C29.0842 0.682689 28.4163 0.360284 27.6991 0.17663C27.0096 1.70217e-07 26.2069 0 24.6014 0H8.39857C6.79313 0 5.99042 1.70217e-07 5.30086 0.17663C4.58366 0.360284 3.91584 0.682689 3.34075 1.12292C2.76566 1.56315 2.29614 2.11136 1.96269 2.73198ZM27.5842 18.9835C28.9657 18.9868 30.3246 18.6564 31.5288 18.0245V19.8089C31.5288 26.0339 31.5288 29.1472 29.4566 31.0802C27.7893 32.6385 25.3051 32.9406 20.9202 33V27.2373C20.9202 25.6938 20.9202 24.9229 20.5649 24.3485C20.3321 23.9721 19.9973 23.6595 19.5942 23.4422C18.9789 23.1104 18.1532 23.1104 16.5 23.1104C14.8468 23.1104 14.0211 23.1104 13.4058 23.4422C13.0027 23.6595 12.6679 23.9721 12.4351 24.3485C12.0798 24.9229 12.0798 25.6938 12.0798 27.2373V33C7.69486 32.9406 5.21068 32.6368 3.54337 31.0802C1.47115 29.1472 1.47115 26.0339 1.47115 19.8089V18.0245C2.67596 18.6567 4.03549 18.9871 5.41755 18.9835C7.46084 18.9847 9.42805 18.26 10.9199 16.9564C12.4399 18.2644 14.4328 18.9883 16.5 18.9835C18.5672 18.9883 20.56 18.2644 22.0801 16.9564C23.5719 18.26 25.5409 18.9847 27.5842 18.9835Z" fill="#F1ECE3"/>
</svg>
